Coordinates
nRows=109
nColumns=2
inDegrees=yes
endheader
time	ankle_angle_r	
3.00605	 -5.054057	
3.07762	 -5.044639	
3.14919	 -5.064255	
3.22077	 -5.038984	
3.29234	 -5.045277	
3.36391	 -5.069232	
3.43548	 -5.061966	
3.50706	 -5.059995	
3.57863	 -5.051216	
3.6502	 -5.082830	
3.72177	 -5.099996	
3.79335	 -5.040007	
3.86492	 -5.015151	
3.93649	 -5.041269	
4.00806	 -5.050698	
4.07964	 -5.034283	
4.15121	 -5.044115	
4.22278	 -5.078737	
4.29435	 -5.066588	
4.36593	 -5.032637	
4.4375	 -5.041199	
4.50907	 -5.082666	
4.58065	 -5.093991	
4.65222	 -5.063916	
4.72379	 -5.048307	
4.79536	 -5.086884	
4.86694	 -5.114187	
4.93851	 -5.041424	
5.01008	 -5.001327	
5.08165	 -5.056357	
5.15323	 -5.070354	
5.2248	 -5.040280	
5.29637	 -5.032162	
5.36794	 -5.085806	
5.43952	 -5.114378	
5.51109	 -5.048158	
5.58266	 -5.017299	
5.65423	 -5.034764	
5.72581	 -5.029256	
5.79738	 -5.012440	
5.86895	 -5.007066	
5.94052	 -5.028013	
6.0121	 -5.043665	
6.08367	 -5.029023	
6.15524	 -5.021267	
6.22681	 -5.044211	
6.29839	 -5.054950	
6.36996	 -5.034225	
6.44153	 -5.019365	
6.5131	 -5.040322	
6.58468	 -5.049141	
6.65625	 -4.998965	
6.72782	 -4.996063	
6.7994	 -5.049900	
6.87097	 -5.051095	
6.94254	 -5.025209	
7.01411	 -5.022267	
7.08569	 -5.058135	
7.15726	 -5.081034	
7.22883	 -5.035456	
7.3004	 -5.009542	
7.37198	 -5.046296	
7.44355	 -5.053070	
7.51512	 -5.017180	
7.58669	 -5.017816	
7.65827	 -5.039902	
7.72984	 -5.055096	
7.80141	 -5.064049	
7.87298	 -5.053036	
7.94456	 -5.059951	
8.01613	 -5.071555	
8.0877	 -5.052635	
8.15927	 -5.034497	
8.23085	 -5.055051	
8.30242	 -5.078821	
8.37399	 -5.040043	
8.44556	 -5.005138	
8.51714	 -5.026048	
8.58871	 -5.056341	
8.66028	 -5.044862	
8.73185	 -5.008601	
8.80343	 -5.037651	
8.875	 -5.061818	
8.94657	 -5.014686	
9.01815	 -4.983210	
9.08972	 -4.999615	
9.16129	 -5.027078	
9.23286	 -5.006590	
9.30444	 -4.983160	
9.37601	 -5.017934	
9.44758	 -5.054390	
9.51915	 -5.039403	
9.59073	 -4.995919	
9.6623	 -5.008226	
9.73387	 -5.054652	
9.80544	 -5.049900	
9.87702	 -5.019372	
9.94859	 -5.030049	
10.0202	 -5.060217	
10.0917	 -5.039489	
10.1633	 -5.015749	
10.2349	 -5.025808	
10.3065	 -5.037357	
10.378	 -5.030057	
10.4496	 -4.987150	
10.5212	 -5.023436	
10.5927	 -5.126909	
10.6643	 -5.124840	
10.7359	 -5.055004	
